<svg xmlns="http://www.w3.org/2000/svg" xml:space="preserve" width="1500" height="198" data-id="lg_GkUyCll1ZAEeI3xITa" data-version="1" viewBox="0 0 1500 198"><g data-padding="20"><g transform="translate(10 3.536)scale(.96429)"><path fill="#ff5e5e" fill-rule="evenodd" d="M657.622 184.82a22.75 22.75 0 0 0-22.435 0c-41.564 23.782-94.196 14.36-124.93-22.363-30.733-36.723-30.733-90.191 0-126.914 30.734-36.723 83.366-46.145 124.93-22.363a22.75 22.75 0 0 0 22.435 0C672.094 4.868 688.877.125 706.762.125s34.755 4.777 49.245 13.125a22.75 22.75 0 0 0 22.505 0C793.019 4.902 809.837.125 827.757.125s34.737 4.777 49.245 13.125a22.75 22.75 0 0 0 22.505 0c41.56-23.859 94.247-14.479 125.02 22.257 30.774 36.735 30.774 90.25 0 126.986-30.773 36.736-83.46 46.116-125.02 22.257a22.75 22.75 0 0 0-22.505 0c-14.508 8.347-31.325 13.125-49.245 13.125s-34.755-4.778-49.245-13.125a22.75 22.75 0 0 0-22.505 0c-14.508 8.347-31.325 13.125-49.245 13.125s-34.668-4.742-49.14-13.055"/><rect width="401.478" height="77.97" x="166.66" y="-339.985" fill="none" rx="0" ry="0" transform="translate(400.51 400.29)"/><path fill="#d5e1ff" d="m602.029 87.48-6.01 12.29v5.1q0 5.04.21 8.01.21 2.96.97 4.41.75 1.45 2.41 1.9t4.49.45l.13.83h-21.25l.14-.83q2.9 0 4.52-.45t2.38-1.9.97-4.41q.2-2.97.2-8.01v-4.35l-7.73-13.04q-2.96-5.03-4.86-7.97-1.9-2.93-3.24-4.31-1.35-1.38-2.66-1.79-1.31-.42-3.17-.42l-.14-.82h17.18l-.14.82q-2.14 0-3.14.28t-1 1.45q0 1.38 1.66 4.31 1.65 2.93 4.83 8.45l6.21 10.7 5.31-10.7q2.48-5.03 3.62-7.79t1.14-4.35-1.1-1.97q-1.11-.38-3.52-.38l-.14-.82h15.46l-.14.82q-2.35 0-3.83.38t-2.76 1.76-2.9 4.32q-1.62 2.93-4.1 8.03m43.89 10.7v6.97q0 4.9.17 7.59t.8 3.76q.62 1.07 1.86 1.07.9 0 1.65-.31.76-.31 1.45-.66l.35.69-1.38.86q-1.38.87-3.76 1.76-2.38.9-5.28.9-.28-1.31-.48-3.86-.21-2.56-.21-5.39-.76 2.28-2.04 4.49-1.27 2.21-3.41 3.66t-5.52 1.45q-4.07 0-6.63-2.28-2.55-2.28-2.55-6.35 0-3.31 2-5.83t6.42-3.93q4.42-1.42 11.73-1.42v-2.48q0-2.97-.52-5.28t-2-3.62-4.31-1.31q-1.93 0-3.04.72-1.1.73-1.76 1.76-.65 1.04-1.14 2.11-.48 1.06-1.13 1.79-.66.72-1.83.72-2.35 0-2.35-2.34 0-2 1.66-3.38 1.65-1.38 4.31-2.14t5.55-.76q4.9 0 8.15 2.66 3.24 2.65 3.24 8.38m-14.7 20.84q2.69 0 4.56-1.59 1.86-1.59 3-4.07 1.14-2.49 1.69-5.28t.62-5.14q-5.45.07-8.73 1.45t-4.73 3.59q-1.44 2.2-1.44 4.83 0 2.55 1.24 4.38t3.79 1.83m48.79-6.21q-.63 2.14-1.97 4.03-1.35 1.9-3.49 3.11-2.13 1.21-5.24 1.21-3.52 0-5.97-1.52t-3.9-3.97-2.1-5.35q-.66-2.9-.66-5.66 0-4.83 2.07-8.79 2.07-3.97 5.94-6.35 3.86-2.38 9.24-2.38 1.94 0 3.49.24t2.79.59v-6.56q0-3.52-.14-5.55-.13-2.04-.69-3-.55-.97-1.72-1.25-1.17-.27-3.24-.27l-.14-.76 1.48-.21q1.49-.21 3.93-.41 2.45-.21 5.35-.21v35.4q0 4.9.17 7.59.18 2.69.8 3.76t1.86 1.07q.9 0 1.66-.31t1.45-.66l.34.69-1.38.86q-1.38.87-3.76 1.76-2.38.9-5.28.9-.27-1.31-.58-3.24t-.31-4.76m-9.66 6.21q2.82 0 4.72-1.73 1.9-1.72 3-4.35 1.11-2.62 1.62-5.52.52-2.89.52-5.24V91.62q-2.96-2.34-6.83-2.34-3.31 0-5.55 1.52-2.25 1.51-3.52 3.89-1.28 2.38-1.83 5.04t-.55 4.93q0 2.14.38 4.66t1.27 4.69q.9 2.18 2.56 3.59 1.65 1.42 4.21 1.42m52.22-16.84q0-4.35-.24-7.04t-.9-4.1q-.66-1.42-2.04-1.9t-3.65-.48l-.14-.76 1.76-.21q1.76-.21 4.45-.38t5.59-.17v18.01q0 4.9.17 7.59t.79 3.76q.63 1.07 1.87 1.07.89 0 1.65-.31t1.45-.66l.35.69-1.42.86q-1.41.87-3.76 1.76-2.34.9-5.24.9-.28-1.79-.48-3.83-.21-2.03-.21-5.42-.69 2.21-1.97 4.42-1.27 2.21-3.45 3.69-2.17 1.49-5.55 1.49-5.32 0-7.94-2.87-2.62-2.86-2.62-8.17v-6.7q0-5.03-.17-8t-.86-4.42-2.04-1.89q-1.35-.45-3.76-.45l-.14-.76 1.76-.21q1.76-.21 4.45-.38t5.59-.17v22.29q0 4.41 1.38 7t5.18 2.59q2.89 0 4.83-1.73 1.93-1.72 3.1-4.35 1.17-2.62 1.69-5.52.52-2.89.52-5.24m26.7-15.04v12.35q.42-2.9 1.69-5.76 1.28-2.87 3.59-4.73t5.69-1.86q5.32 0 7.94 2.86 2.62 2.87 2.62 8.18v10.9q0 4.69.34 6.97.35 2.28 1.59 2.93 1.24.66 3.93.66l.14.83h-16.76l.13-.83q2.14 0 3.32-.35 1.17-.34 1.69-1.45.51-1.1.65-3.34.14-2.25.14-6.04v-9.59q0-4.49-1.38-7.04t-5.18-2.55q-2.41 0-4.17 1.45t-2.9 3.76-1.83 5-.96 5.21q-.28 2.52-.28 4.38 0 3.59.14 5.69.14 2.11.69 3.14.55 1.04 1.72 1.38 1.18.35 3.25.35l.14.83h-16.84l.14-.83q2.14 0 3.34-.35 1.21-.34 1.76-1.41.56-1.07.69-3.21.14-2.14.14-5.73v-5.52q0-5.03-.17-8t-.86-4.42-2.04-1.89q-1.34-.45-3.76-.45l-.14-.76 1.76-.21q1.76-.21 4.45-.38t5.59-.17m58.04 11.04v6.97q0 4.9.17 7.59.18 2.69.8 3.76t1.86 1.07q.9 0 1.66-.31.75-.31 1.44-.66l.35.69-1.38.86q-1.38.87-3.76 1.76-2.38.9-5.28.9-.28-1.31-.48-3.86-.21-2.56-.21-5.39-.76 2.28-2.04 4.49-1.27 2.21-3.41 3.66t-5.52 1.45q-4.07 0-6.62-2.28-2.56-2.28-2.56-6.35 0-3.31 2-5.83t6.42-3.93q4.42-1.42 11.73-1.42v-2.48q0-2.97-.52-5.28-.51-2.31-2-3.62-1.48-1.31-4.31-1.31-1.93 0-3.04.72-1.1.73-1.76 1.76-.65 1.04-1.13 2.11-.49 1.06-1.14 1.79-.66.72-1.83.72-2.35 0-2.35-2.34 0-2 1.66-3.38 1.65-1.38 4.31-2.14t5.56-.76q4.89 0 8.14 2.66 3.24 2.65 3.24 8.38m-14.7 20.84q2.69 0 4.56-1.59 1.86-1.59 3-4.07 1.14-2.49 1.69-5.28t.62-5.14q-5.45.07-8.73 1.45t-4.72 3.59q-1.45 2.2-1.45 4.83 0 2.55 1.24 4.38t3.79 1.83m36.57-31.88v12.35q.42-2.9 1.69-5.76 1.28-2.87 3.59-4.73t5.69-1.86q5.32 0 7.94 2.86 2.62 2.87 2.62 8.18v10.9q0 4.69.35 6.97.34 2.28 1.58 2.93 1.25.66 3.94.66l.13.83h-16.76l.14-.83q2.13 0 3.31-.35 1.17-.34 1.69-1.45.52-1.1.65-3.34.14-2.25.14-6.04v-9.59q0-4.49-1.38-7.04t-5.17-2.55q-2.42 0-4.18 1.45t-2.9 3.76q-1.13 2.31-1.82 5t-.97 5.21-.28 4.38q0 3.59.14 5.69.14 2.11.69 3.14.55 1.04 1.73 1.38 1.17.35 3.24.35l.14.83h-16.84l.14-.83q2.14 0 3.35-.35 1.2-.34 1.76-1.41.55-1.07.69-3.21.13-2.14.13-5.73v-5.52q0-5.03-.17-8t-.86-4.42-2.04-1.89q-1.34-.45-3.76-.45l-.14-.76 1.76-.21q1.76-.21 4.45-.38 2.7-.17 5.59-.17m55.69 25.67q-.62 2.14-1.97 4.03-1.35 1.9-3.48 3.11-2.14 1.21-5.25 1.21-3.52 0-5.97-1.52t-3.9-3.97q-1.44-2.45-2.1-5.35t-.66-5.66q0-4.83 2.07-8.79 2.07-3.97 5.94-6.35 3.86-2.38 9.24-2.38 1.94 0 3.49.24t2.79.59v-6.56q0-3.52-.13-5.55-.14-2.04-.69-3-.56-.97-1.73-1.25-1.17-.27-3.24-.27l-.14-.76 1.48-.21q1.49-.21 3.94-.41 2.45-.21 5.34-.21v35.4q0 4.9.18 7.59.17 2.69.79 3.76t1.86 1.07q.9 0 1.66-.31t1.45-.66l.34.69-1.38.86q-1.38.87-3.76 1.76-2.38.9-5.28.9-.27-1.31-.58-3.24t-.31-4.76m-9.66 6.21q2.83 0 4.72-1.73 1.9-1.72 3-4.35 1.11-2.62 1.63-5.52.51-2.89.51-5.24V91.62q-2.96-2.34-6.83-2.34-3.31 0-5.55 1.52-2.24 1.51-3.52 3.89t-1.83 5.04-.55 4.93q0 2.14.38 4.66t1.27 4.69q.9 2.18 2.56 3.59 1.65 1.42 4.21 1.42m50.78-20.84v6.97q0 4.9.17 7.59.18 2.69.8 3.76t1.86 1.07q.9 0 1.66-.31.75-.31 1.44-.66l.35.69-1.38.86q-1.38.87-3.76 1.76-2.38.9-5.28.9-.28-1.31-.48-3.86-.21-2.56-.21-5.39-.76 2.28-2.04 4.49-1.27 2.21-3.41 3.66t-5.52 1.45q-4.07 0-6.62-2.28-2.56-2.28-2.56-6.35 0-3.31 2-5.83t6.42-3.93q4.42-1.42 11.73-1.42v-2.48q0-2.97-.52-5.28-.51-2.31-2-3.62-1.48-1.31-4.31-1.31-1.93 0-3.04.72-1.1.73-1.76 1.76-.65 1.04-1.13 2.11-.49 1.06-1.14 1.79-.66.72-1.83.72-2.35 0-2.35-2.34 0-2 1.66-3.38 1.65-1.38 4.31-2.14t5.56-.76q4.89 0 8.14 2.66 3.24 2.65 3.24 8.38m-14.7 20.84q2.69 0 4.56-1.59 1.86-1.59 3-4.07 1.14-2.49 1.69-5.28t.62-5.14q-5.45.07-8.73 1.45t-4.72 3.59q-1.45 2.2-1.45 4.83 0 2.55 1.24 4.38t3.79 1.83m36.56-31.88v12.35q.42-2.9 1.69-5.76 1.28-2.87 3.59-4.73t5.69-1.86q5.32 0 7.94 2.86 2.62 2.87 2.62 8.18v10.9q0 4.69.35 6.97.34 2.28 1.58 2.93 1.25.66 3.94.66l.13.83h-16.76l.14-.83q2.13 0 3.31-.35 1.17-.34 1.69-1.45.52-1.1.65-3.34.14-2.25.14-6.04v-9.59q0-4.49-1.38-7.04t-5.17-2.55q-2.42 0-4.18 1.45t-2.9 3.76q-1.13 2.31-1.82 5t-.97 5.21-.28 4.38q0 3.59.14 5.69.14 2.11.69 3.14.55 1.04 1.73 1.38 1.17.35 3.24.35l.14.83h-16.84l.14-.83q2.14 0 3.35-.35 1.2-.34 1.76-1.41.55-1.07.69-3.21.13-2.14.13-5.73v-5.52q0-5.03-.17-8t-.86-4.42-2.04-1.89q-1.34-.45-3.76-.45l-.14-.76 1.76-.21q1.76-.21 4.45-.38 2.7-.17 5.59-.17" paint-order="stroke"/></g><path fill="transparent" stroke="transparent" d="M470 0h560v198H470z"/></g></svg>